<?xml version="1.0" encoding="utf-8"?>
<!-- Generator: Adobe Illustrator 16.0.0, SVG Export Plug-In . SVG Version: 6.00 Build 0)  -->
<!DOCTYPE svg PUBLIC "-//W3C//DTD SVG 1.1//EN" "http://www.w3.org/Graphics/SVG/1.1/DTD/svg11.dtd">
<svg version="1.1" id="Layer_1" xmlns="http://www.w3.org/2000/svg" xmlns:xlink="http://www.w3.org/1999/xlink" x="0px" y="0px"
	 width="2498px" height="700px" viewBox="0 0 2498 700" enable-background="new 0 0 2498 700" xml:space="preserve">
<g>
	<defs>
		<rect id="SVGID_1_" width="2498" height="700"/>
	</defs>
	<clipPath id="SVGID_2_">
		<use xlink:href="#SVGID_1_"  overflow="visible"/>
	</clipPath>
	<g clip-path="url(#SVGID_2_)">
		<defs>
			<rect id="SVGID_3_" width="2498" height="700"/>
		</defs>
		<clipPath id="SVGID_4_">
			<use xlink:href="#SVGID_3_"  overflow="visible"/>
		</clipPath>
		<g opacity="0" clip-path="url(#SVGID_4_)">
			<g>
				<defs>
					<rect id="SVGID_5_" width="2498" height="700"/>
				</defs>
				<clipPath id="SVGID_6_">
					<use xlink:href="#SVGID_5_"  overflow="visible"/>
				</clipPath>
				<rect clip-path="url(#SVGID_6_)" fill="#FFFFFF" width="2498" height="700"/>
			</g>
		</g>
	</g>
	<rect x="200" y="200" clip-path="url(#SVGID_2_)" fill="#414042" width="67" height="300"/>
	<g clip-path="url(#SVGID_2_)">
		<defs>
			<rect id="SVGID_7_" width="2498" height="700"/>
		</defs>
		<clipPath id="SVGID_8_">
			<use xlink:href="#SVGID_7_"  overflow="visible"/>
		</clipPath>
		<path clip-path="url(#SVGID_8_)" fill="#414042" d="M473.927,251.497c-23.288,0-41.318,8.751-54.092,26.248
			c-12.775,17.499-19.162,41.884-19.162,73.154c0,65.068,24.417,97.603,73.254,97.603c20.491,0,45.31-5.121,74.452-15.368v51.896
			c-23.953,9.98-50.699,14.97-80.24,14.97c-42.45,0-74.919-12.875-97.406-38.623C348.244,435.628,337,398.67,337,350.5
			c0-30.34,5.521-56.918,16.567-79.741c11.044-22.821,26.912-40.32,47.605-52.496C421.863,206.088,446.114,200,473.927,200
			c28.344,0,56.819,6.854,85.43,20.559l-19.961,50.299c-10.912-5.189-21.89-9.712-32.934-13.573
			C495.416,253.427,484.572,251.497,473.927,251.497"/>
		<path clip-path="url(#SVGID_8_)" fill="#414042" d="M887.477,349.901c0,48.238-11.96,85.313-35.88,111.228
			C827.675,487.043,793.39,500,748.738,500c-44.652,0-78.937-12.957-102.858-38.871C621.96,435.215,610,398.008,610,349.502
			c0-48.504,11.992-85.547,35.98-111.13C669.966,212.792,704.353,200,749.138,200c44.783,0,79.037,12.891,102.758,38.671
			C875.616,264.453,887.477,301.53,887.477,349.901 M674.785,349.901c0,32.558,6.179,57.076,18.538,73.553
			c12.359,16.481,30.83,24.718,55.416,24.718c49.302,0,73.954-32.755,73.954-98.271c0-65.648-24.518-98.472-73.555-98.472
			c-24.587,0-43.125,8.272-55.615,24.817C681.029,292.792,674.785,317.343,674.785,349.901"/>
		<path clip-path="url(#SVGID_8_)" fill="#414042" d="M1144.221,414.97c0,26.348-9.481,47.105-28.443,62.275
			c-18.963,15.17-45.344,22.756-79.143,22.756c-31.137,0-58.683-5.854-82.635-17.565v-57.486c19.693,8.783,36.36,14.971,50,18.563
			c13.639,3.593,26.114,5.389,37.426,5.389c13.573,0,23.984-2.594,31.238-7.784c7.251-5.189,10.878-12.905,10.878-23.153
			c0-5.722-1.597-10.811-4.79-15.271c-3.194-4.455-7.885-8.746-14.073-12.874c-6.187-4.124-18.796-10.711-37.824-19.76
			c-17.832-8.382-31.206-16.432-40.12-24.15c-8.916-7.717-16.036-16.699-21.358-26.947c-5.323-10.245-7.984-22.221-7.984-35.928
			c0-25.815,8.749-46.108,26.248-60.879c17.497-14.77,41.683-22.155,72.555-22.155c15.17,0,29.641,1.796,43.414,5.389
			c13.772,3.593,28.176,8.651,43.214,15.17l-19.96,48.104c-15.569-6.388-28.444-10.845-38.623-13.374
			c-10.18-2.527-20.194-3.792-30.041-3.792c-11.71,0-20.692,2.728-26.946,8.184c-6.255,5.457-9.381,12.574-9.381,21.357
			c0,5.457,1.263,10.214,3.792,14.272c2.527,4.059,6.553,7.984,12.076,11.776c5.521,3.792,18.595,10.613,39.222,20.459
			c27.278,13.042,45.974,26.116,56.088,39.22C1139.163,379.876,1144.221,395.943,1144.221,414.97"/>
		<path clip-path="url(#SVGID_8_)" fill="#E63274" d="M1574,127.5c0,15.188-12.313,27.5-27.5,27.5c-15.188,0-27.5-12.312-27.5-27.5
			s12.312-27.5,27.5-27.5C1561.688,100,1574,112.312,1574,127.5"/>
		<path clip-path="url(#SVGID_8_)" fill="#0A96F0" d="M1491.5,127.5c0,15.188-12.313,27.5-27.5,27.5
			c-15.188,0-27.5-12.312-27.5-27.5s12.312-27.5,27.5-27.5C1479.188,100,1491.5,112.312,1491.5,127.5"/>
		<path clip-path="url(#SVGID_8_)" fill="#E63274" d="M1409,127.5c0,15.188-12.313,27.5-27.5,27.5c-15.188,0-27.5-12.312-27.5-27.5
			s12.312-27.5,27.5-27.5C1396.688,100,1409,112.312,1409,127.5"/>
		<rect x="1241" y="100" clip-path="url(#SVGID_8_)" fill="#414042" width="14" height="500"/>
		<path clip-path="url(#SVGID_8_)" fill="#414042" d="M1393.307,216.185c-5.696,0-10.106,2.141-13.231,6.421
			c-3.125,4.281-4.688,10.246-4.688,17.895c0,15.918,5.974,23.877,17.92,23.877c5.014,0,11.084-1.253,18.213-3.759v12.695
			c-5.858,2.441-12.401,3.662-19.629,3.662c-10.385,0-18.326-3.149-23.827-9.448c-5.503-6.299-8.253-15.34-8.253-27.124
			c0-7.422,1.351-13.924,4.054-19.507c2.701-5.583,6.583-9.863,11.645-12.842c5.063-2.978,10.994-4.468,17.798-4.468
			c6.935,0,13.899,1.677,20.898,5.03l-4.882,12.304c-2.67-1.269-5.356-2.376-8.058-3.32S1395.911,216.185,1393.307,216.185"/>
		<path clip-path="url(#SVGID_8_)" fill="#414042" d="M1459.172,276l-2.881-7.422h-0.392c-2.507,3.158-5.087,5.347-7.738,6.567
			c-2.654,1.221-6.113,1.832-10.376,1.832c-5.241,0-9.367-1.498-12.379-4.493c-3.012-2.994-4.517-7.258-4.517-12.793
			c0-5.794,2.027-10.066,6.079-12.817c4.053-2.75,10.164-4.272,18.335-4.565l9.474-0.293v-2.393c0-5.534-2.832-8.301-8.496-8.301
			c-4.362,0-9.489,1.319-15.382,3.955l-4.932-10.058c6.283-3.288,13.248-4.932,20.899-4.932c7.323,0,12.938,1.595,16.846,4.785
			c3.906,3.191,5.859,8.041,5.859,14.551V276H1459.172z M1454.777,250.707l-5.763,0.195c-4.33,0.131-7.552,0.912-9.668,2.344
			c-2.116,1.433-3.174,3.613-3.174,6.543c0,4.199,2.409,6.299,7.227,6.299c3.45,0,6.209-0.993,8.276-2.979
			c2.067-1.985,3.102-4.622,3.102-7.91V250.707z"/>
		<path clip-path="url(#SVGID_8_)" fill="#414042" d="M1513.732,220.384c2.019,0,3.694,0.146,5.029,0.439l-1.123,13.965
			c-1.205-0.325-2.67-0.488-4.394-0.488c-4.753,0-8.456,1.221-11.109,3.662c-2.653,2.442-3.979,5.859-3.979,10.254V276h-14.894
			v-54.59h11.28l2.197,9.18h0.731c1.693-3.059,3.98-5.525,6.861-7.397C1507.214,221.32,1510.347,220.384,1513.732,220.384"/>
		<path clip-path="url(#SVGID_8_)" fill="#414042" d="M1557.604,220.384c6.445,0,11.49,2.515,15.138,7.544
			c3.645,5.029,5.469,11.922,5.469,20.679c0,9.017-1.88,15.999-5.641,20.947c-3.76,4.948-8.879,7.422-15.355,7.422
			c-6.414,0-11.443-2.327-15.088-6.983h-1.026l-2.49,6.006h-11.377v-75.976h14.894v17.675c0,2.246-0.196,5.844-0.586,10.791h0.586
			C1545.608,223.086,1550.769,220.384,1557.604,220.384 M1552.82,232.298c-3.68,0-6.364,1.131-8.058,3.394
			c-1.692,2.262-2.572,5.998-2.636,11.206v1.611c0,5.859,0.87,10.059,2.611,12.598s4.5,3.808,8.276,3.808
			c3.06,0,5.493-1.408,7.3-4.223c1.808-2.816,2.71-6.91,2.71-12.281c0-5.371-0.911-9.399-2.733-12.085
			C1558.467,233.641,1555.977,232.298,1552.82,232.298"/>
		<path clip-path="url(#SVGID_8_)" fill="#414042" d="M1639.675,248.607c0,8.887-2.344,15.837-7.03,20.85
			c-4.688,5.013-11.216,7.519-19.58,7.519c-5.241,0-9.863-1.147-13.867-3.442c-4.004-2.295-7.08-5.591-9.229-9.888
			c-2.147-4.297-3.223-9.31-3.223-15.039c0-8.919,2.328-15.853,6.983-20.801c4.653-4.948,11.196-7.422,19.629-7.422
			c5.239,0,9.862,1.14,13.867,3.418c4.004,2.279,7.079,5.551,9.228,9.815C1638.602,237.881,1639.675,242.878,1639.675,248.607
			 M1601.932,248.607c0,5.404,0.887,9.489,2.66,12.256c1.774,2.767,4.663,4.15,8.667,4.15c3.972,0,6.827-1.375,8.569-4.126
			c1.742-2.75,2.613-6.843,2.613-12.28c0-5.403-0.879-9.456-2.638-12.158c-1.758-2.702-4.639-4.053-8.643-4.053
			c-3.971,0-6.835,1.343-8.593,4.028C1602.811,239.11,1601.932,243.171,1601.932,248.607"/>
		<path clip-path="url(#SVGID_8_)" fill="#414042" d="M1701.109,276h-14.893v-31.885c0-3.938-0.7-6.892-2.099-8.862
			c-1.401-1.969-3.63-2.954-6.69-2.954c-4.167,0-7.177,1.391-9.033,4.175c-1.854,2.783-2.783,7.397-2.783,13.842V276h-14.893v-54.59
			h11.377l2.002,6.983h0.83c1.661-2.637,3.947-4.631,6.861-5.982c2.913-1.35,6.225-2.026,9.936-2.026
			c6.348,0,11.165,1.717,14.453,5.151c3.287,3.435,4.932,8.391,4.932,14.868V276z"/>
		<path clip-path="url(#SVGID_8_)" fill="#414042" d="M1412.302,336.878c0,7.682-2.402,13.558-7.202,17.627
			c-4.802,4.068-11.63,6.103-20.484,6.103h-6.494V386h-15.137v-71.388h22.803c8.658,0,15.242,1.864,19.752,5.591
			C1410.047,323.932,1412.302,329.49,1412.302,336.878 M1378.121,348.207h4.98c4.655,0,8.138-0.919,10.45-2.759
			c2.31-1.839,3.466-4.516,3.466-8.032c0-3.548-0.968-6.168-2.905-7.861c-1.937-1.693-4.972-2.539-9.105-2.539h-6.886V348.207z"/>
		<path clip-path="url(#SVGID_8_)" fill="#414042" d="M1472.425,358.606c0,8.888-2.344,15.838-7.03,20.851
			c-4.688,5.013-11.216,7.519-19.58,7.519c-5.241,0-9.863-1.146-13.867-3.441s-7.08-5.591-9.229-9.889
			c-2.147-4.297-3.223-9.31-3.223-15.039c0-8.918,2.328-15.853,6.983-20.801c4.653-4.948,11.196-7.422,19.629-7.422
			c5.239,0,9.862,1.14,13.867,3.418c4.004,2.279,7.079,5.551,9.228,9.815C1471.352,347.881,1472.425,352.878,1472.425,358.606
			 M1434.682,358.606c0,5.404,0.887,9.489,2.66,12.257c1.774,2.767,4.663,4.149,8.667,4.149c3.972,0,6.827-1.375,8.569-4.126
			c1.742-2.75,2.613-6.843,2.613-12.28c0-5.402-0.879-9.456-2.638-12.158c-1.758-2.702-4.639-4.053-8.643-4.053
			c-3.971,0-6.835,1.343-8.593,4.028C1435.561,349.11,1434.682,353.171,1434.682,358.606"/>
		<path clip-path="url(#SVGID_8_)" fill="#414042" d="M1513.939,330.384c2.018,0,3.693,0.146,5.028,0.439l-1.123,13.965
			c-1.205-0.325-2.67-0.488-4.394-0.488c-4.753,0-8.456,1.221-11.109,3.662c-2.652,2.442-3.979,5.859-3.979,10.254v27.782h-14.894
			v-54.59h11.28l2.197,9.18h0.731c1.693-3.059,3.98-5.525,6.861-7.397C1507.42,331.32,1510.553,330.384,1513.939,330.384"/>
		<path clip-path="url(#SVGID_8_)" fill="#414042" d="M1553.299,375.11c2.604,0,5.729-0.568,9.375-1.709v11.084
			c-3.712,1.66-8.27,2.49-13.673,2.49c-5.957,0-10.295-1.505-13.013-4.516s-4.077-7.528-4.077-13.55v-26.319h-7.129v-6.298
			l8.204-4.981l4.296-11.523h9.522v11.621h15.282v11.181h-15.282v26.319c0,2.115,0.594,3.679,1.781,4.687
			C1549.774,374.606,1551.346,375.11,1553.299,375.11"/>
		<path clip-path="url(#SVGID_8_)" fill="#414042" d="M1608.267,386l-2.881-7.423h-0.392c-2.507,3.158-5.087,5.348-7.738,6.567
			c-2.654,1.221-6.113,1.832-10.376,1.832c-5.241,0-9.367-1.498-12.378-4.493c-3.013-2.994-4.518-7.258-4.518-12.793
			c0-5.794,2.027-10.065,6.079-12.817c4.053-2.75,10.164-4.271,18.335-4.564l9.473-0.293v-2.393c0-5.534-2.832-8.301-8.496-8.301
			c-4.361,0-9.488,1.319-15.381,3.955l-4.932-10.058c6.283-3.288,13.248-4.932,20.899-4.932c7.323,0,12.938,1.595,16.846,4.785
			c3.906,3.191,5.858,8.041,5.858,14.551V386H1608.267z M1603.871,360.706l-5.762,0.195c-4.33,0.131-7.552,0.912-9.668,2.344
			c-2.116,1.434-3.174,3.613-3.174,6.543c0,4.199,2.409,6.3,7.227,6.3c3.45,0,6.209-0.993,8.276-2.979
			c2.067-1.985,3.101-4.622,3.101-7.91V360.706z"/>
		<rect x="1632.389" y="310.023" clip-path="url(#SVGID_8_)" fill="#414042" width="14.894" height="75.977"/>
	</g>
</g>
</svg>
